<?xml version="1.0" encoding="UTF-8" standalone="no"?>
<!-- Generated by Pixelmator Pro 3.6.17 -->

<svg
   width="576"
   height="576"
   viewBox="0 0 575.9999999999999 575.9999999999998"
   version="1.1"
   id="svg1"
   sodipodi:docname="AI-Integrated-Issue-Tracker-Logo.svg"
   xml:space="preserve"
   inkscape:version="1.4.2 (f4327f4, 2025-05-13)"
   inkscape:export-filename="C:\Users\denmi\source\repos\issue-tracking-with-ai\favicon.png"
   inkscape:export-xdpi="96"
   inkscape:export-ydpi="96"
   xmlns:inkscape="http://www.inkscape.org/namespaces/inkscape"
   xmlns:sodipodi="http://sodipodi.sourceforge.net/DTD/sodipodi-0.dtd"
   xmlns="http://www.w3.org/2000/svg"
   xmlns:svg="http://www.w3.org/2000/svg"><defs
     id="defs1"><inkscape:path-effect
       effect="interpolate_points"
       id="path-effect1"
       is_visible="true"
       lpeversion="1"
       interpolator_type="CentripetalCatmullRom" /></defs><sodipodi:namedview
     id="namedview1"
     pagecolor="#ffffff"
     bordercolor="#000000"
     borderopacity="0.25"
     inkscape:showpageshadow="2"
     inkscape:pageopacity="0.0"
     inkscape:pagecheckerboard="0"
     inkscape:deskcolor="#d1d1d1"
     showgrid="false"
     inkscape:zoom="0.4690474983108196"
     inkscape:cx="746.1930854773871"
     inkscape:cy="81.01524928040203"
     inkscape:window-width="1920"
     inkscape:window-height="1009"
     inkscape:window-x="-8"
     inkscape:window-y="-8"
     inkscape:window-maximized="1"
     inkscape:current-layer="g7" /><g
     id="g7"
     transform="translate(750.9698486328125,-1619.2001953125)"><path
       id="rect4"
       style="fill:#f9f9f9;stroke:#000000;stroke-width:56.6929;stroke-linecap:round;stroke-linejoin:round;stroke-opacity:1"
       d="m -685.2206502891015,1672.152954101562 h 483.2962951660154 v 483.29623413086 h -483.2962951660154 z" /><path
       id="text3"
       style="font-size:1582.44px;line-height:0.85;font-family:'BabelStone Tibetan';-inkscape-font-specification:'BabelStone Tibetan';letter-spacing:0px;fill:#d97757;stroke:#ffffff;stroke-width:14.486;stroke-linecap:round;stroke-linejoin:round;stroke-dasharray:none;stroke-opacity:1"
       d="m -495.7906569952598,1634.891686820141 c -16.4171797083467,0 -32.3046400222624,5.935596557386 -44.2885035421083,16.904316755667 c -11.889237079783,10.821588788296 -18.0971700969245,26.860852510425 -18.0971700969245,43.281946643423 c 0,9.180035227155 0.8101404132159,19.731805351804 2.3412179798124,31.980425884578 a 18.38642963373338,18.38642963373339 0 0 0 0.215492153724,1.324929177413 c 2.3975637335857,11.987818667926 6.2733147225256,24.710479078166 11.4947685612178,38.279748133112 c 5.5988234889709,19.67227643367 9.7838341938962,38.550563181734 12.5624974261204,56.611874191193 a 18.38642963373338,18.38642963373339 0 0 0 0.1167828445983,0.675672172321 c 2.4030394609433,12.495805196907 3.8954969682758,24.343831884522 4.6240445373263,35.625718962411 c -0.8923262720742,-0.543085189241 -2.0556215580931,-1.180925596832 -2.9279127467255,-1.716985869995 c -8.9611077893277,-6.211331252344 -17.568949308043,-12.413481224579 -25.8409849113875,-18.604619362145 c -7.6262652735113,-6.953837190559 -15.619948697757,-14.595318263599 -24.0016551089575,-22.977024674799 a 18.38642963373338,18.38642963373339 0 0 0 -0.00139027196,0 l -29.1665154385331,-29.165125166573 c -13.4153665571181,-16.334603610363 -24.1713075013339,-27.696011824381 -35.5617664522728,-34.944485702251 c -11.0482601021948,-7.030710974125 -24.0419291455689,-10.574408524024 -37.3719005435531,-10.574408524024 c -16.4315210023667,0 -32.3851255222834,6.068667600745 -43.8005180843211,17.484060162782 c -11.612195995806,11.612195995806 -17.4840601627808,27.95562437363 -17.4840601627808,44.900223204292 c 0,21.1475159881 10.4725547063812,41.021585218184 27.9875648168692,52.698258625177 c 17.1226131996093,11.415075466406 40.7728251396878,18.669625758574 72.7584927289273,24.762133870808 l -0.165442363181,-0.03197625507 c 14.1467818843513,2.82935637687 26.7381744620135,5.987959480339 37.7222490773487,9.420482797628 a 18.38642963373338,18.38642963373339 0 0 0 1.2720988429505,0.34756798988 c 11.602948390155,2.730105503565 22.0403788257073,5.776140773881 31.3714867663131,9.074305079712 c 5.3135429168326,2.651868981478 9.0689855384584,4.485561280889 13.2256571508058,5.871118485004 c 1.6147262740699,0.538242091357 2.7164579477461,1.016222071836 3.091964837947,1.203975516936 c 0.3398188071086,0.169909403553 1.6392990343089,0.935863204012 3.1892838751131,1.947771015272 c -2.3099812701972,1.293117909256 -4.8829458340135,2.790336185316 -6.9819457806527,3.920566925816 c -9.0215717266631,4.857769391278 -18.0295554207585,9.3560736771 -27.0213258050101,13.520394806221 c -8.6832680799249,3.321753346798 -17.717463207431,6.335508350493 -27.1089129384602,9.033987192887 c -10.0433210302042,2.148358948212 -22.124912448842,4.63880631714 -36.4612724100748,7.506078309387 l 0.7382344104991,-0.132075836153 c -29.314838285659,4.628658676683 -51.6761227158645,11.251596195301 -68.2359380446454,22.940877603853 a 18.38642963373338,18.38642963373339 0 0 0 -0.4282037635285,0.31142091893 c -16.2443165980361,12.183237448526 -24.9539914012214,32.079085286001 -24.9539914012214,53.208488434316 c 0,17.044892506953 5.5198942147008,33.518480418959 17.7815783621161,44.320479797177 c 12.2616841474139,10.801999378216 28.7040659015745,14.764688209982 46.8035055168592,14.764688209982 c 11.7561102911882,0 22.9761552836924,-2.294157497668 32.7826128052144,-7.653447137095 c 11.1316622029723,-5.655248436253 21.1146649727498,-14.771413168725 33.4068449150343,-27.831854357404 a 18.38642963373338,18.38642963373339 0 0 0 0.5700115033984,-0.635354285496 c 8.6764019583643,-10.122468951424 15.4937198306551,-18.013983466275 20.5398779297823,-23.783382411315 c 5.321423795134,-5.343577654027 9.5159676465339,-9.867819879876 12.9142362318755,-13.994477544414 l 8.4876103128006,-8.4876103128 l -1.9700153666239,1.707253966276 c 3.9831991489631,-2.987399361721 7.4890092962305,-6.577065461136 10.8051936693009,-10.536871181116 c 2.3789389912051,-2.375885472982 4.6584734331523,-4.359994505638 6.7956493380781,-5.962876434333 a 18.38642963373338,18.38642963373339 0 0 0 0.4546189307596,-0.351738805756 c 3.2011173020396,-2.560893841631 6.8054896357135,-5.188103791512 10.812145029099,-7.859207387102 a 18.38642963373338,18.38642963373339 0 0 0 1.5723975862043,-1.173389533825 c 3.3181226136426,-2.765102178036 8.4967116730488,-6.382916348809 15.2902110106759,-10.459015951384 l 0.4560092027193,-0.273883576024 l 0.3100306469702,9.321773488505 a 18.38642963373338,18.38642963373339 0 0 0 0.025024895271,0.535254704412 c 0.5806130443391,9.289808709429 -0.5825930072671,21.602867868836 -3.963665356559,36.504370840818 c -3.4389087044946,14.418204066324 -8.7048495878917,31.331020155318 -15.8282462590066,50.564191167332 l 0.2085407939262,-0.533864432452 c -10.0862558687647,24.827706753887 -15.6530719921078,46.563903620724 -15.6530719921078,66.318753012483 c 0,15.495019515027 6.1320249706088,30.481921919097 16.4510880968659,42.677178341038 a 18.38642963373338,18.38642963373339 0 0 0 0.5255228006941,0.59364612671 c 11.5627388237365,12.52630039238 27.5979958635254,20.214554291255 44.3093576215006,20.214554291255 c 17.6249417054918,0 34.5636851627763,-7.004910370458 47.7099628344595,-19.212168208449 a 18.38642963373338,18.38642963373339 0 0 0 0.4907660017067,-0.471302194275 c 12.8978475097147,-12.897847509718 20.7845657946547,-29.58759133897 20.7845657946547,-47.101023716196 c 0,-14.071138583216 -4.4906711691123,-28.93896272935 -12.0592189767784,-47.949089611495 c -0.00162846105,-0.0045892993 -0.00254251181,-0.0093134261 -0.00417081587,-0.0139027196 c -7.7654559715479,-21.886549177244 -13.7447298145777,-43.707849898472 -17.9623137168522,-65.485980108738 c -2.9578148066681,-15.790263302971 -4.8237893254939,-32.187551328223 -5.6889928583095,-49.148894312551 c 18.0868671342067,11.590120432114 39.7773263231974,31.700346618097 63.5771367083321,60.909204818036 c 16.5833060254869,20.352239213098 30.6392049843705,35.380788221328 43.4682430859983,45.644018702629 a 18.38642963373338,18.38642963373339 0 0 0 0.6131099341431,0.469911922315 c 13.5143104826628,9.910494353956 29.0265413223939,15.658633079945 44.9725173461866,15.658633079945 c 18.2196652098008,0 35.6790176735897,-6.3150170345 46.8813607465922,-19.559736198325 c 11.0990203740038,-12.322955969978 16.6040180124121,-28.824087278088 16.6040180124121,-46.125052800621 c 0,-20.217172064172 -8.2343893352939,-39.411587721434 -23.8070170346265,-50.953467315994 c -15.3548176541866,-11.93540104996 -36.3190809067127,-17.203733810227 -64.9409935006099,-21.026473115608 c -37.8849251844952,-6.994140034059 -70.6830726303874,-17.570840373892 -98.6995772214001,-31.390950573747 c 3.6697594228494,-1.861246535926 7.5370822903936,-3.877941615146 10.735680071326,-5.370620579582 a 18.38642963373338,18.38642963373339 0 0 0 0.447667570962,-0.215492153721 c 11.185784566962,-5.592892283481 21.5307249501982,-10.063334690793 30.961356538258,-13.431417400815 c 9.9007854755013,-3.535994812677 19.7904316050709,-6.713597652886 29.6684036159153,-9.535875370269 c 9.3225480768079,-2.663585164802 20.7392428753673,-5.106190844451 34.1158836143836,-7.21829201377 l -0.1918575304124,0.02919571115 c 26.3708514523861,-3.878066390055 45.4928272008095,-8.729344327906 59.6954973973838,-20.564902825052 c 14.1248257643912,-11.770688136995 19.8155462388771,-30.359255050838 19.8155462388771,-50.423773699421 c 0,-17.863046524631 -5.344817610438,-34.728788459146 -16.6207012759262,-47.242831456065 c -11.0084501317197,-13.005851506285 -28.0912730450807,-19.543052934815 -45.7649723631068,-19.543052934815 c -15.0810842012738,0 -29.5727536029028,5.978373844164 -42.7731071062443,15.658633079946 a 18.38642963373338,18.38642963373339 0 0 0 -0.486595185828,0.369812341229 c -12.072104373437,9.485224864844 -25.3692890897896,23.366954004296 -41.2020997919992,42.214217778523 c -0.00536505844,0.0063865268 -0.00992735076,0.01168586787 -0.015292991554,0.01807353547 c -4.5101476287616,5.26389945823 -7.5326863080837,8.893858972174 -10.0210802841381,12.626449936258 a 18.38642963373338,18.38642963373339 0 0 0 -1.6238376487063,3.318579167346 l -3.7773689139848,3.777368913986 a 18.38642963373338,18.38642963373339 0 0 0 -0.00278054392,0.001390272 l -9.6623901185852,9.662390118586 c -5.5069616372562,4.828888346533 -9.5657928071285,8.467477959115 -12.33727336868,11.238958520668 l -5.4999158718162,5.499915871816 c 1.4397122243919,-1.439712224394 0.2136725678776,-0.205010616763 -1.5974224814755,1.002386082806 a 18.38642963373338,18.38642963373339 0 0 0 -2.8027882703694,2.296729277108 c -0.3609642089896,0.360964208991 -3.2763344322598,2.960487632509 -7.111241072887,6.178368588058 c -4.6026960996971,3.281060414662 -8.1842944528744,5.790324996183 -9.8862239040662,6.924944630311 a 18.38642963373338,18.38642963373339 0 0 0 -2.8027882703694,2.296729277109 l -0.5144006250185,0.514400625018 v -0.713209515228 c 0,-13.860353731575 1.6487817170811,-28.595911531991 5.028613677543,-44.225941303931 c 4.2577750257223,-16.996963693693 9.5908866344141,-35.152617925429 16.0270551492162,-54.461123469834 a 18.38642963373338,18.38642963373339 0 0 0 0.1960283462903,-0.627012653738 c 3.7074888364311,-12.605462043866 6.6993964383597,-23.812949275769 8.9992303938997,-33.744681001195 c 3.1752081634638,-10.582994973383 4.9493681758508,-20.852671278734 4.9493681758508,-30.8431834217 c 3e-13,-16.967365045784 -7.5658124341911,-33.371822617922 -20.4064118216684,-44.45255563333 c -11.80357381485,-11.442305297654 -27.7112422340988,-17.933118005703 -44.1786720573119,-17.933118005729 z" /></g></svg>
