<?xml version="1.0" encoding="UTF-8" standalone="no"?>
<!-- Generated by Pixelmator Pro 3.6.17 -->

<svg
   width="4800"
   height="2400"
   viewBox="0 0 4800 2400"
   version="1.1"
   id="svg1"
   sodipodi:docname="AI-Integrated-Issue-Tracker-Splash.svg"
   xml:space="preserve"
   inkscape:version="1.4.2 (f4327f4, 2025-05-13)"
   xmlns:inkscape="http://www.inkscape.org/namespaces/inkscape"
   xmlns:sodipodi="http://sodipodi.sourceforge.net/DTD/sodipodi-0.dtd"
   xmlns="http://www.w3.org/2000/svg"
   xmlns:svg="http://www.w3.org/2000/svg"><defs
     id="defs1"><inkscape:path-effect
       effect="interpolate_points"
       id="path-effect1"
       is_visible="true"
       lpeversion="1"
       interpolator_type="CentripetalCatmullRom" /><clipPath
       clipPathUnits="userSpaceOnUse"
       id="clipPath16"><rect
         style="opacity:1;fill:#999999;fill-opacity:1;stroke:none;stroke-width:198.684;stroke-linecap:round;stroke-linejoin:round;stroke-dasharray:none;stroke-opacity:1"
         id="rect17"
         width="1680.075317382812"
         height="1870.272216796875"
         x="-2132.5498046875"
         y="-161.1454315185547" /></clipPath></defs><sodipodi:namedview
     id="namedview1"
     pagecolor="#ffffff"
     bordercolor="#000000"
     borderopacity="0.25"
     inkscape:showpageshadow="2"
     inkscape:pageopacity="0.0"
     inkscape:pagecheckerboard="0"
     inkscape:deskcolor="#d1d1d1"
     showgrid="false"
     inkscape:zoom="0.1658333335083325"
     inkscape:cx="2098.492460097079"
     inkscape:cy="1320.603013681783"
     inkscape:window-width="1920"
     inkscape:window-height="1009"
     inkscape:window-x="-8"
     inkscape:window-y="-8"
     inkscape:window-maximized="1"
     inkscape:current-layer="g7" /><g
     id="g7"
     transform="translate(1062.50732421875,-1403.467041015625)"><rect
       style="fill:#f9f9f9;fill-opacity:1;stroke:#000000;stroke-width:31.4246;stroke-linecap:round;stroke-linejoin:round;stroke-dasharray:none;stroke-opacity:1"
       id="rect4"
       width="483.2962951660156"
       height="483.2962341308594"
       x="-434.4951782226562"
       y="2015.078857421875" /><path
       style="font-size:1582.44px;line-height:0.85;font-family:'BabelStone Tibetan';-inkscape-font-specification:'BabelStone Tibetan';letter-spacing:0px;fill:#d97757;stroke-width:1.96727;stroke-linecap:round;stroke-linejoin:round"
       d="m -291.4055333137512,2261.126201629639 q -23.1802725791931,13.908163547515 -38.6337876319886,23.180272579193 q -15.4535150527954,9.272109031677 -24.7256240844726,16.998866558075 q -9.2721090316773,6.181406021118 -16.998866558075,12.362812042236 q -6.1814060211181,4.636054515839 -12.3628120422363,10.817460536957 q -6.1814060211182,7.726757526398 -12.3628120422363,12.362812042236 q -4.6360545158386,4.636054515839 -12.3628120422363,12.362812042236 q -6.1814060211183,7.726757526398 -18.5442180633545,20.089569568634 q -10.8174605369568,12.362812042235 -29.3616786003113,33.997733116149 q -24.7256240844727,26.270975589754 -40.1791391372681,33.997733116149 q -13.908163547516,7.7267575264 -33.9977331161498,7.7267575264 q -64.9047632217413,0 -64.9047632217413,-57.178005695343 q 0,-35.543084621429 24.7256240844731,-54.087302684784 q 26.2709755897522,-18.544218063354 84.9943327903745,-27.816327095034 q 30.9070301055908,-6.181406021119 52.5419511795044,-10.817460536954 q 21.6349210739135,-6.18140602112 41.7244906425476,-13.908163547516 q 20.0895695686339,-9.272109031678 40.1791391372681,-20.089569568634 q 20.089569568634,-10.817460536957 47.9058966636658,-27.816327095033 l -18.5442180633544,-12.362812042235 q -12.3628120422363,-6.18140602112 -16.998866558075,-9.27210903168 q -4.6360545158386,-3.090703010559 -7.7267575263977,-4.636054515839 q -3.0907030105591,-1.54535150528 -7.7267575263976,-3.09070301056 q -4.6360545158386,-1.54535150528 -16.998866558075,-7.7267575264 q -21.6349210739135,-7.7267575264 -47.9058966636657,-13.908163547515 q -24.7256240844728,-7.726757526399 -55.6326541900635,-13.908163547514 q -64.9047632217397,-12.362812042235 -92.7210903167719,-30.907030105589 q -27.8163270950322,-18.544218063355 -27.8163270950322,-52.541951179504 q 0,-27.816327095034 16.9988665580753,-44.815193653108 q 16.9988665580751,-16.998866558075 43.2698421478268,-16.998866558075 q 21.6349210739137,0 38.6337876319885,10.817460536955 q 16.998866558075,10.817460536955 44.8151936531067,44.815193653109 q 23.1802725791931,23.180272579194 41.7244906425476,41.724490642548 q 18.5442180633545,18.544218063355 35.5430846214295,33.997733116149 q 18.5442180633544,13.908163547515 38.6337876319884,27.816327095034 q 20.089569568634,12.362812042235 44.8151936531067,26.270975589752 v -24.725624084472 q 0,-35.54308462143 -7.7267575263977,-75.722223758698 q -6.1814060211183,-40.179139137268 -18.5442180633545,-83.448981285097 q -10.8174605369568,-27.816327095034 -15.4535150527954,-50.996599674223 q -3.0907030105591,-24.725624084474 -3.0907030105591,-41.724490642549 q 0,-26.270975589751 16.998866558075,-41.724490642546 q 18.5442180633545,-16.998866558075 44.8151936531067,-16.998866558075 q 26.2709755897522,0 44.8151936531066,18.544218063354 q 20.089569568634,16.998866558075 20.089569568634,43.269842147827 q 0,16.998866558075 -6.1814060211181,37.088436126709 q -4.6360545158386,20.089569568634 -12.3628120422363,46.360545158386 q -13.9081635475159,41.724490642546 -23.1802725791932,78.812926769255 q -7.7267575263976,35.543084621429 -7.7267575263976,67.995466232298 v 46.360545158383 l 13.9081635475159,-7.726757526394 q 12.3628120422363,-7.7267575264 16.9988665580751,-9.27210903168 q 4.6360545158385,-3.09070301056 7.7267575263977,-4.63605451584 q 3.090703010559,-3.09070301056 6.1814060211181,-6.18140602112 q 4.6360545158386,-3.09070301056 15.4535150527954,-10.817460536954 q 9.2721090316774,-7.7267575264 12.3628120422364,-10.817460536955 q 4.6360545158386,-3.09070301056 6.1814060211181,-4.63605451584 q 3.0907030105591,-3.09070301056 7.7267575263977,-7.726757526395 q 4.6360545158388,-4.636054515839 16.9988665580751,-15.453515052794 q 10.8174605369567,-10.817460536955 13.9081635475158,-13.908163547515 q 4.6360545158386,-4.63605451584 6.1814060211182,-6.181406021119 q 3.0907030105592,-3.09070301056 4.6360545158386,-7.726757526395 q 3.090703010559,-4.63605451584 12.3628120422364,-15.453515052796 q 32.45238161087352,-38.633787631988 54.08730268478708,-55.632654190063 q 23.18027257919241,-16.998866558075 44.81519365310668,-16.998866558075 q 29.361678600311144,0 44.81519365310663,18.544218063354 q 16.99886655807514,18.544218063355 16.99886655807514,49.451248168945 q 0,35.543084621429 -18.54421806335471,50.996599674224 q -18.544218063354382,15.453515052794 -71.08616924285881,23.180272579194 q -29.36167860031072,4.636054515839 -50.99659967422469,10.817460536955 q -21.63492107391552,6.18140602112 -43.26984214782992,13.908163547514 q -21.6349210739136,7.7267575264 -46.3605451583862,20.089569568635 q -23.1802725791932,10.817460536954 -55.6326541900635,29.361678600309 l 13.9081635475159,10.817460536954 q 71.0861692428588,41.724490642549 171.53401708603135,60.268708705903 q 58.723357200622722,7.7267575264 80.35827827453617,24.725624084475 q 23.18027257919311,16.998866558074 23.18027257919311,50.996599674223 q 0,29.361678600309 -16.9988665580752,47.905896663669 q -15.45351505279531,18.544218063354 -46.36054515838622,18.544218063354 q -24.72562408447282,0 -47.90589666366572,-16.998866558074 q -23.18027257919311,-18.544218063355 -57.1780056953444,-60.268708705904 q -67.9954662323005,-83.448981285097 -122.0827689170845,-105.083902359006 l -13.9081635475162,-4.63605451584 v 10.817460536955 q 0,54.087302684783 9.2721090316773,103.538550853731 q 9.2721090316772,47.905896663664 26.2709755897522,95.811793327332 q 15.4535150527955,38.633787631989 15.4535150527955,58.723357200623 q 0,26.270975589755 -21.6349210739136,47.905896663669 q -21.6349210739136,20.089569568634 -49.4512481689453,20.089569568634 q -24.7256240844728,0 -43.269842147827,-20.089569568634 q -16.9988665580751,-20.089569568634 -16.9988665580751,-43.269842147829 q 0,-33.997733116149 20.0895695686339,-83.448981285097 q 15.4535150527956,-41.724490642549 23.1802725791932,-74.176872253418 q 7.7267575263979,-33.997733116149 6.1814060211183,-58.723357200623 l -1.5453515052795,-46.360545158388 z"
       id="text3"
       aria-label="*" /><rect
       style="fill:#5c2d91;fill-opacity:1;stroke-width:0.551043;stroke-linecap:round;stroke-linejoin:round"
       id="rect3"
       width="3087.437255859375"
       height="178.1646575927734"
       x="180.9878845214844"
       y="2039.725830078125" /><rect
       style="fill:#5c2d91;fill-opacity:1;stroke-width:0.430158;stroke-linecap:round;stroke-linejoin:round"
       id="rect5"
       width="1881.407104492188"
       height="178.1646575927734"
       x="180.9878845214844"
       y="2295.5634765625" /><path
       style="font-size:330.615px;line-height:0.85;font-family:'Franklin Gothic Demi';-inkscape-font-specification:'Franklin Gothic Demi';letter-spacing:0px;fill:#d97757;stroke-width:37.4871;stroke-linecap:round;stroke-linejoin:round"
       d="m -466.4635954738976,2805.580955604023 l 68.3699200183193,222.167552942484 h -55.0802165955546 l -13.2897034227647,-45.735591484863 h -70.7716736489392 l -13.7700541488888,45.735591484863 h -44.8327344382421 l 69.9710891053993,-222.167552942484 z m -58.4426716784227,135.416413222085 h 46.4339035253221 l -23.2169517626612,-77.962093669926 z m 201.4270679622651,-135.416413222085 v 222.167552942484 h -51.0772938778545 v -222.167552942484 z m 25.778836608709,119.954202577736 h 76.5358823624277 v 35.318944313934 h -76.5358823624277 z m 153.552097360664,-119.954202577736 v 222.167552942484 h -51.0772938778545 V 2805.580955604023 Z M 38.06477606136915,3027.748508546507 H -9.650062733617181 v -92.284983529955 q 0,-16.764291540715 -1.280935269664059,-22.949175798454 q -1.28093526966407,-6.184884257739 -6.2445594396123,-10.41664717093 q -4.96362416994824,-4.394523025236 -12.48911887922459,-4.394523025236 q -25.13835466715721,0 -25.13835466715721,37.760345994619 v 92.284983529955 H -102.5178697842616 V 2863.360795380273 H -58.165486072144 v 27.831979159827 q 11.04806670085253,-19.856733669585 21.775899584289,-25.553337591187 q 10.72783288343663,-5.696603921601 23.21695176266112,-5.696603921601 q 23.056834853953176,0 37.14712282025777,12.69528873957 q 14.09028796630489,12.532528627524 14.09028796630489,49.479074061916 z M 131.092700493671,2901.121141374894 v 69.498567843546 q 0,13.020808963661 3.8428058089922,17.415331988898 q 3.8428058089921,4.394523025236 18.0932106840048,4.394523025236 q 6.5647932570283,0 15.2111063272608,-0.651040448184 v 35.969984762115 q -20.815198132041,3.580722465008 -29.9418619283974,3.580722465008 q -29.7817450196895,0 -42.27086389891407,-11.555967955249 q -12.48911887922461,-11.718728067296 -12.48911887922461,-42.154869019856 v -76.497252661514 H 57.91927321411148 v -37.76034599462 H 86.2599660554288 l 3.84280580899221,-48.502513389641 l 40.98992862924999,-3.255202240916 v 51.757715630557 h 34.9054860983457 v 37.76034599462 z m 205.2698682141015,52.571516190785 H 232.2865780475676 q -0.1601169087081,4.394523025236 -0.1601169087081,7.649725266151 q 0,17.578092100943 9.1266637963565,26.529898263461 q 9.2867807050644,8.951806162517 22.0961334017051,8.951806162517 q 23.8574193974931,0 28.6609266587334,-25.878857815278 l 43.231565351162,3.255202240915 q -18.0932106840049,56.966039216022 -73.4936610969755,56.966039216022 q -24.1776532149091,0 -41.1500455379579,-9.765606722747 q -16.8122754143409,-9.928366834792 -27.8603421151934,-28.808539832102 q -10.8879497921445,-18.88017299731 -10.8879497921445,-45.247311148726 q 0,-39.225187003032 21.936016492997,-63.313683585806 q 22.0961334017051,-24.088496582775 56.6813856826348,-24.088496582775 q 31.2227971980615,0 53.4790475084745,22.460895462317 q 22.416367219121,22.298135350271 22.416367219121,71.288929076051 z m -104.2361075689131,-28.15749938392 h 57.4819702261749 q -2.241636721912,-33.85410330552 -27.3799913890694,-33.85410330552 q -26.8996406629453,0 -30.1019788371055,33.85410330552 z m 295.8960887937095,-58.430880224433 q -7.5254947092761,-1.627601120457 -12.6492357879324,-1.627601120457 q -15.8515739620925,0 -18.5735614101287,14.322889860028 q 12.9694696053486,13.834609523891 12.9694696053486,31.249941512789 q 0,23.274696022546 -19.2140290449609,37.109305546436 q -19.053912136253,13.834609523891 -55.0802165955546,13.834609523891 q -12.8093526966406,0 -24.9782377584492,-2.441401680687 q -8.1659623441084,4.882803361375 -8.1659623441084,12.532528627527 q 0,8.463525826382 6.8850270744443,11.23044773116 q 6.8850270744442,2.766921904777 33.1442001025574,4.069002801144 q 37.3072397289659,1.953121344548 51.3975276952705,4.720043249326 q 14.0902879663046,2.766921904777 23.6973024887847,13.346329187752 q 9.6070145224808,10.579407282976 9.6070145224808,26.367138151416 q 0,22.623655574363 -20.6550812233326,38.248626330757 q -20.4949643146251,15.624970756395 -72.8531934621436,15.624970756395 q -49.1558909733584,0 -66.288400205115,-10.904927507067 q -17.1325092317567,-10.742167395022 -17.1325092317567,-27.343698823689 q 0,-21.972615126178 27.7002252064852,-29.62234039233 q -20.494964314625,-10.41664717093 -20.494964314625,-29.296820168237 q 0,-23.600216246637 32.3436155590175,-36.783785322345 q -28.6609266587333,-12.044248291385 -28.6609266587333,-40.201747675304 q 0,-22.949175798456 19.6943797710849,-37.272065658482 q 19.854496679793,-14.32288986003 54.7599827781387,-14.32288986003 q 22.0961334017052,0 42.7512146250381,7.161444930015 q 1.4410521783721,-13.997369635938 8.0058454354003,-22.949175798452 q 6.7249101657364,-9.114566274563 28.3406928413172,-9.114566274563 q 7.0451439831522,0 13.4498203314723,1.302080896367 z m -92.8678070506443,19.042933109357 q -12.3290019705165,0 -19.3741459536689,6.835924705922 q -6.8850270744443,6.673164593876 -6.8850270744443,17.740852212989 q 0,25.065057255049 26.4192899368214,25.065057255049 q 12.8093526966405,0 20.014613588501,-7.32420504206 q 7.3653778005682,-7.32420504206 7.3653778005682,-17.740852212989 q 0,-9.765606722747 -6.8850270744443,-17.089811764806 q -6.8850270744443,-7.486965154108 -20.6550812233331,-7.486965154105 z m -31.8632648328935,140.461976695503 q -2.882104356744,0 -7.3653778005682,3.906242689099 q -4.3231565351162,3.906242689098 -4.3231565351162,9.440086498655 q 0,11.067687619113 13.9301710575966,13.834609523892 q 13.9301710575967,2.766921904778 32.6638493764336,2.766921904778 q 24.4978870323252,0 34.2650184635137,-3.743482577054 q 9.9272483398963,-3.743482577052 9.9272483398963,-12.044248291387 q 0,-6.347644369786 -8.3260792528164,-9.765606722744 q -8.1659623441083,-3.417962352959 -43.872032985994,-3.417962352959 l -9.6070145224804,0.162760112044 q -8.8064299789406,0 -11.8486512443926,-0.488280336137 q -3.3624550828683,-0.651040448186 -5.4439748960724,-0.651040448187 z m 190.8593387449525,1.139320784321 h -46.2737866166142 v -164.387713166233 h 43.7119160772861 v 30.598901064606 q 10.0873652486042,-34.179623529615 34.9054860983456,-34.179623529615 q 3.522571991576,0 8.6463130702324,0.488280336137 v 47.851472941455 q -14.5706386924286,0 -22.7366010365371,4.557283137282 q -8.0058454354005,4.557283137282 -13.1295865140564,16.438771316622 q -5.1237410786564,11.718728067297 -5.1237410786564,31.738221848927 z m 208.7924450534092,0 h -46.2737866166142 q -2.2416367219123,-9.765606722747 -2.2416367219123,-25.716097703232 q -12.1688850618085,17.578092100943 -24.3377701236169,23.437456134592 q -12.0087681531005,5.696603921602 -27.3799913890692,5.696603921602 q -22.7366010365372,0 -36.8268890028419,-12.532528627525 q -13.9301710575967,-12.532528627525 -13.9301710575967,-33.691343193477 q 0,-15.462210644348 8.1659623441085,-28.483019608012 q 8.1659623441084,-13.020808963663 26.2591730281132,-20.345014005722 q 18.0932106840048,-7.486965154109 65.9681663876993,-11.067687619111 v -9.440086498656 q 0,-23.925736470731 -23.537185580077,-23.925736470731 q -25.1383546671574,0 -28.0204590239016,23.925736470731 l -44.032149894702,-4.231762913189 q 4.323156535116,-27.994739271875 26.0990561194052,-39.713467339169 q 21.7758995842889,-11.718728067295 49.3160078820664,-11.718728067295 q 16.492041596925,0 31.0626802893531,3.906242689096 q 14.5706386924292,3.906242689101 22.7366010365373,11.718728067297 q 8.1659623441084,7.812485378196 11.0480667008526,16.60153142867 q 2.8821043567442,8.626285938427 2.8821043567442,30.273380840514 v 74.544131316965 q 0,21.484334790042 3.042221265452,30.761661176652 z m -50.5969431517302,-78.775894230155 q -50.1165924256068,5.045563473419 -50.1165924256068,30.761661176651 q 0,8.626285938426 5.2838579873643,14.973930308211 q 5.2838579873644,6.18488425774 15.0509894185527,6.18488425774 q 12.6492357879329,0 21.1354319494573,-10.579407282975 q 8.6463130702325,-10.742167395022 8.6463130702325,-26.367138151415 z m 140.5826341401323,-47.851472941458 v 69.498567843546 q 0,13.020808963661 3.8428058089921,17.415331988898 q 3.8428058089924,4.394523025237 18.0932106840046,4.394523025237 q 6.5647932570288,0 15.2111063272612,-0.651040448184 v 35.969984762117 q -20.8151981320409,3.580722465006 -29.9418619283973,3.580722465006 q -29.7817450196898,0 -42.2708638989142,-11.55596795525 q -12.4891188792244,-11.718728067295 -12.4891188792244,-42.154869019856 v -76.497252661513 h -25.6187053932814 v -37.76034599462 h 28.3406928413174 l 3.8428058089922,-48.502513389642 l 40.9899286292498,-3.255202240916 v 51.757715630557 h 34.9054860983457 v 37.76034599462 z m 205.2699287516281,52.571516190786 H 994.1228909272183 q -0.1601169087088,4.394523025236 -0.1601169087088,7.649725266151 q 0,17.578092100944 9.1266637963574,26.529898263461 q 9.286780705064,8.951806162517 22.096133401705,8.951806162517 q 23.857419397493,0 28.660926658733,-25.878857815278 l 43.231565351162,3.255202240915 q -18.093210684005,56.966039216023 -73.493661096976,56.966039216023 q -24.1776532149088,0 -41.1500455379571,-9.765606722748 q -16.8122754143409,-9.928366834792 -27.8603421151935,-28.808539832101 q -10.8879497921441,-18.880172997311 -10.8879497921441,-45.247311148727 q 0,-39.22518700303 21.9360164929967,-63.313683585805 q 22.0961334017053,-24.088496582774 56.6813856826341,-24.088496582774 q 31.222797198062,0 53.479047508476,22.460895462315 q 22.416367219121,22.298135350271 22.41636721912,71.288929076051 z m -104.2361075689137,-28.15749938392 h 57.4819702261755 q -2.241636721912,-33.85410330552 -27.379991389069,-33.85410330552 q -26.8996406629459,0 -30.1019788371066,33.85410330552 z m 271.7183145037495,-119.954202577736 v 222.167552942483 h -44.032149894702 v -25.716097703233 q -16.331924688217,29.134060056195 -44.512500620827,29.134060056195 q -26.739523754238,0 -42.270863898913,-22.135375238227 q -15.37122323597,-22.29813535027 -15.37122323597,-61.686082465348 q 0,-41.015548235535 15.37122323597,-64.127484146036 q 15.531340144676,-23.274696022545 44.832734438241,-23.274696022545 q 25.778822301989,0 39.708993359586,20.670534229813 v -75.032411653103 z m -46.273786616615,126.627367171613 q 0,-38.736906666893 -23.056834853952,-38.736906666893 q -27.540108297779,0 -27.540108297779,54.687397647379 q 0,48.665273501687 25.77882230199,48.665273501687 q 9.927248339897,0 17.292626140465,-8.789046050471 q 7.525494709276,-8.789046050471 7.525494709276,-25.065057255049 z m 221.121480366861,-126.627367171614 v 222.167552942487 h -51.077293877855 v -222.167552942482 z m 162.678687613385,97.493307115421 l -34.745369189638,9.440086498656 q -6.084442530904,-22.298135350271 -31.543031015478,-22.298135350271 q -24.0175363062,0 -24.0175363062,14.811170196168 q 0,5.859364033648 4.323156535115,9.440086498656 q 4.483273443823,3.417962352959 23.056834853953,5.859364033648 q 27.700225206485,3.743482577052 40.98992862925,8.626285938426 q 13.289703422765,4.882803361375 20.975315040749,16.438771316623 q 7.845728526692,11.555967955247 7.845728526692,28.483019608012 q 0,25.390577479141 -19.053912136253,41.341068459626 q -18.893795227544,15.950490980486 -52.99869678235,15.950490980486 q -61.805126761291,0 -73.813894914391,-48.665273501686 l 40.18934408571,-6.022124145693 q 4.963624169947,22.135375238227 35.866187550592,22.135375238227 q 11.848651244392,0 20.014613588502,-4.231762913189 q 8.165962344108,-4.394523025237 8.165962344108,-11.718728067296 q 0,-11.393207843204 -18.093210684005,-13.509089299801 q -48.99577406465,-6.184884257741 -64.527114209327,-19.042933109356 q -15.371223235971,-13.020808963658 -15.371223235971,-36.132744874164 q 0,-23.437456134589 17.933093775298,-38.736906666893 q 17.933093775295,-15.299450532304 50.276709334315,-15.299450532304 q 25.618705393281,0 40.98992862925,10.253887058886 q 15.371223235968,10.25388705888 23.537185580079,32.877542633239 z m 155.153320600453,0 l -34.745369189638,9.440086498656 q -6.084442530904,-22.298135350271 -31.543031015478,-22.298135350271 q -24.0175363062,0 -24.0175363062,14.811170196168 q 0,5.859364033648 4.323156535115,9.440086498656 q 4.483273443823,3.417962352959 23.056834853953,5.859364033648 q 27.700225206486,3.743482577052 40.98992862925,8.626285938426 q 13.289703422766,4.882803361375 20.97531504075,16.438771316623 q 7.845728526692,11.555967955247 7.845728526692,28.483019608012 q 0,25.390577479141 -19.053912136253,41.341068459626 q -18.893795227544,15.950490980486 -52.99869678235,15.950490980486 q -61.805126761291,0 -73.813894914391,-48.665273501686 l 40.18934408571,-6.022124145693 q 4.963624169947,22.135375238227 35.866187550592,22.135375238227 q 11.848651244392,0 20.014613588502,-4.231762913189 q 8.165962344109,-4.394523025237 8.165962344109,-11.718728067296 q 0,-11.393207843204 -18.093210684006,-13.509089299801 q -48.99577406465,-6.184884257741 -64.527114209327,-19.042933109356 q -15.37122323597,-13.020808963658 -15.37122323597,-36.132744874164 q 0,-23.437456134589 17.933093775298,-38.736906666893 q 17.933093775296,-15.299450532304 50.276709334315,-15.299450532304 q 25.61870539328,0 40.989928629248,10.253887058886 q 15.37122323597,10.25388705888 23.537185580079,32.877542633239 z m 172.28582983221,-39.713467339167 v 164.387713166233 h -44.192266803411 v -27.994739271875 q -12.489118879224,31.412701624834 -47.714838794986,31.412701624834 q -18.253327592713,0 -28.020459023901,-6.835924705923 q -9.767131431189,-6.998684817966 -14.090287966305,-18.880172997311 q -4.163039626408,-12.044248291385 -4.163039626408,-34.667903865749 v -107.421673950213 h 46.273786616614 v 107.421673950213 q 0,22.135375238227 17.933093775297,22.135375238227 q 9.126663796356,0 15.851573962092,-5.208323585467 q 6.724910165737,-5.371083697511 8.486196161525,-11.393207843205 q 1.921402904496,-6.022124145692 1.921402904496,-20.67053422981 v -92.284983529954 z m 184.614784034834,90.331862185406 h -104.075990660205 q -0.160116908707,4.394523025237 -0.160116908707,7.649725266152 q 0,17.578092100945 9.126663796355,26.529898263459 q 9.286780705065,8.951806162519 22.096133401706,8.951806162519 q 23.857419397493,0 28.660926658733,-25.878857815278 l 43.231565351163,3.255202240915 q -18.093210684005,56.966039216024 -73.493661096975,56.966039216024 q -24.17765321491,0 -41.150045537959,-9.765606722749 q -16.812275414341,-9.928366834793 -27.860342115194,-28.8085398321 q -10.887949792143,-18.880172997312 -10.887949792143,-45.247311148728 q 0,-39.225187003029 21.936016492996,-63.313683585804 q 22.096133401705,-24.088496582774 56.681385682635,-24.088496582774 q 31.22279719806,0 53.479047508474,22.460895462314 q 22.416367219123,22.298135350271 22.416367219121,71.28892907605 z m -104.236107568912,-28.157499383919 h 57.481970226175 q -2.241636721914,-33.854103305519 -27.37999138907,-33.854103305519 q -26.899640662946,0 -30.101978837105,33.854103305519 z m 357.060808457695,-119.954202577736 v 43.945230252361 h -54.119515143308 v 178.222322690121 h -51.877878421394 v -178.222322690126 h -54.439748960723 v -43.945230252361 z m 50.916977857439,222.167552942482 h -46.273786616614 v -164.387713166233 h 43.711916077286 v 30.598901064604 q 10.087365248604,-34.179623529615 34.905486098346,-34.179623529615 q 3.522571991575,0 8.646313070232,0.488280336139 v 47.851472941457 q -14.570638692428,0 -22.736601036536,4.557283137282 q -8.005845435401,4.557283137282 -13.129586514058,16.438771316624 q -5.123741078656,11.718728067295 -5.123741078656,31.738221848925 z m 208.792566128461,0 h -46.273786616614 q -2.241636721912,-9.765606722749 -2.241636721912,-25.716097703234 q -12.168885061808,17.578092100945 -24.337770123615,23.437456134593 q -12.0087681531,5.696603921605 -27.379991389068,5.696603921605 q -22.736601036539,0 -36.826889002843,-12.532528627527 q -13.930171057596,-12.532528627527 -13.930171057596,-33.691343193475 q 0,-15.462210644348 8.165962344111,-28.483019608012 q 8.165962344111,-13.020808963658 26.259173028111,-20.345014005722 q 18.093210684006,-7.486965154109 65.9681663877,-11.067687619116 v -9.440086498655 q 0,-23.925736470728 -23.53718558008,-23.925736470728 q -25.138354667159,0 -28.0204590239,23.925736470728 l -44.0321498947,-4.23176291319 q 4.323156535117,-27.994739271873 26.099056119403,-39.713467339167 q 21.775899584291,-11.718728067296 49.316007882067,-11.718728067296 q 16.492041596924,0 31.062680289353,3.9062426891 q 14.570638692428,3.906242689096 22.736601036539,11.718728067297 q 8.165962344106,7.812485378196 11.048066700851,16.601531428671 q 2.882104356745,8.626285938426 2.882104356745,30.273380840516 v 74.544131316964 q 0,21.484334790041 3.042221265448,30.761661176648 z m -50.59694315173,-78.775894230153 q -50.116592425606,5.045563473419 -50.116592425606,30.761661176653 q 0,8.626285938426 5.283857987364,14.973930308211 q 5.283857987366,6.184884257742 15.050989418553,6.184884257742 q 12.649235787932,0 21.135431949458,-10.579407282974 q 8.646313070231,-10.742167395023 8.646313070231,-26.367138151415 z m 229.127284655661,17.089811764808 q -2.721987448036,29.134060056193 -22.736601036538,47.200432493275 q -19.854496679794,17.903612325039 -51.397527695271,17.903612325039 q -34.265018463514,0 -55.880801139095,-22.949175798452 q -21.455665766873,-23.111935910501 -21.455665766873,-61.686082465349 q 0,-38.574146554849 21.936016492997,-62.49988302558 q 22.096133401705,-24.088496582774 58.923022404546,-24.088496582774 q 29.621628110982,0 48.995774064651,18.066372437082 q 19.534262862377,18.066372437082 21.615782675581,45.247311148727 l -44.512500620827,2.604161792734 q -2.241636721911,-29.62234039233 -25.298471575864,-29.62234039233 q -28.340692841317,0 -28.340692841317,47.200432493275 q 0,31.412701624834 7.845728526693,39.876227451216 q 8.0058454354,8.463525826382 19.374145953669,8.463525826382 q 22.096133401707,0 26.41928993682,-28.483019608012 z m 134.658504437234,-47.037672381231 l 52.678462964934,108.723754846576 h -52.678462964934 l -33.784667737389,-74.544131316964 l -28.020459023903,32.552022409156 v 41.992108907808 h -44.99285134695 v -222.167552942482 h 44.99285134695 v 133.137771653443 l 7.045143983154,-8.951806162519 q 4.483273443824,-6.184884257741 7.525494709275,-9.928366834793 l 47.234488068862,-56.477758879882 h 46.433903525322 z m 212.475140574985,34.667903865754 h -104.075990660206 q -0.160116908708,4.394523025237 -0.160116908708,7.649725266152 q 0,17.578092100945 9.126663796356,26.529898263459 q 9.286780705065,8.951806162519 22.096133401706,8.951806162519 q 23.857419397493,0 28.660926658733,-25.878857815278 l 43.231565351163,3.255202240915 q -18.093210684005,56.966039216024 -73.493661096978,56.966039216024 q -24.177653214912,0 -41.150045537956,-9.765606722749 q -16.812275414341,-9.928366834793 -27.860342115192,-28.8085398321 q -10.887949792145,-18.880172997312 -10.887949792145,-45.247311148728 q 0,-39.225187003029 21.936016492997,-63.313683585804 q 22.096133401705,-24.088496582774 56.681385682635,-24.088496582774 q 31.222797198061,0 53.479047508474,22.460895462314 q 22.416367219122,22.298135350271 22.416367219121,71.28892907605 z m -104.236107568914,-28.157499383919 h 57.481970226175 q -2.241636721913,-33.854103305519 -27.37999138907,-33.854103305519 q -26.899640662944,0 -30.101978837105,33.854103305519 z m 180.61167237384,102.213350364746 h -46.273786616613 V 2863.36079538028 h 43.711916077285 v 30.598901064606 q 10.087365248605,-34.179623529613 34.905486098346,-34.179623529613 q 3.522571991577,0 8.646313070232,0.488280336138 v 47.851472941457 q -14.570638692428,0 -22.736601036536,4.557283137281 q -8.005845435399,4.557283137282 -13.129586514056,16.438771316622 q -5.123741078658,11.718728067297 -5.123741078658,31.738221848927 z"
       id="text5"
       aria-label="AI-Integrated Issue Tracker" /><text
       xml:space="preserve"
       style="font-style:normal;font-variant:normal;font-weight:normal;font-stretch:normal;font-size:166.667px;line-height:0.85;font-family:'Franklin Gothic Demi';-inkscape-font-specification:'Franklin Gothic Demi';text-align:start;letter-spacing:0px;writing-mode:lr-tb;direction:ltr;text-anchor:start;opacity:1;fill:#999999;fill-opacity:1;stroke:none;stroke-width:37.7953;stroke-linecap:round;stroke-linejoin:round;stroke-dasharray:none;stroke-opacity:1"
       x="575.529052734375"
       y="3514.55126953125"
       id="text16"><tspan
         sodipodi:role="line"
         id="tspan16"
         x="575.529052734375"
         y="3514.55126953125"
         style="font-size:166.667px;fill:#999999">DarndestDabbler.org</tspan></text></g></svg>
