<?xml version="1.0" encoding="UTF-8" standalone="no"?>
<!-- Generated by Pixelmator Pro 3.6.17 -->

<svg
   width="4333.83740234375"
   height="1486.148071289062"
   viewBox="0 0 4333.83740234375 1486.148071289062"
   version="1.1"
   id="svg1"
   sodipodi:docname="AI-Integrated-Issue-Tracker.svg"
   xml:space="preserve"
   inkscape:version="1.4.2 (f4327f4, 2025-05-13)"
   xmlns:inkscape="http://www.inkscape.org/namespaces/inkscape"
   xmlns:sodipodi="http://sodipodi.sourceforge.net/DTD/sodipodi-0.dtd"
   xmlns="http://www.w3.org/2000/svg"
   xmlns:svg="http://www.w3.org/2000/svg"><defs
     id="defs1"><inkscape:path-effect
       effect="interpolate_points"
       id="path-effect1"
       is_visible="true"
       lpeversion="1"
       interpolator_type="CentripetalCatmullRom" /></defs><sodipodi:namedview
     id="namedview1"
     pagecolor="#ffffff"
     bordercolor="#000000"
     borderopacity="0.25"
     inkscape:showpageshadow="2"
     inkscape:pageopacity="0.0"
     inkscape:pagecheckerboard="0"
     inkscape:deskcolor="#d1d1d1"
     showgrid="false"
     inkscape:zoom="0.1658333335083326"
     inkscape:cx="1992.964822017483"
     inkscape:cy="651.2562807197827"
     inkscape:window-width="1920"
     inkscape:window-height="1009"
     inkscape:window-x="-8"
     inkscape:window-y="-8"
     inkscape:window-maximized="1"
     inkscape:current-layer="g7" /><g
     id="g7"
     transform="translate(1062.50732421875,-1403.467041015625)"><rect
       style="fill:#f9f9f9;fill-opacity:1;stroke:#000000;stroke-width:31.4246;stroke-linecap:round;stroke-linejoin:round;stroke-dasharray:none;stroke-opacity:1"
       id="rect4"
       width="483.2962951660156"
       height="483.2962341308594"
       x="-666.3765258789062"
       y="1682.152954101562" /><path
       style="font-size:1582.44px;line-height:0.85;font-family:'BabelStone Tibetan';-inkscape-font-specification:'BabelStone Tibetan';letter-spacing:0px;fill:#d97757;stroke-width:1.96727;stroke-linecap:round;stroke-linejoin:round"
       d="m -523.2868809700012,1928.200176239014 q -23.1802725791931,13.908163547515 -38.6337876319885,23.180272579193 q -15.4535150527954,9.272109031677 -24.7256240844727,16.998866558075 q -9.2721090316772,6.181406021118 -16.998866558075,12.362812042236 q -6.1814060211182,4.636054515839 -12.3628120422362,10.817460536957 q -6.1814060211183,7.726757526398 -12.3628120422364,12.362812042236 q -4.6360545158386,4.636054515839 -12.3628120422363,12.362812042236 q -6.1814060211182,7.726757526398 -18.5442180633545,20.089569568634 q -10.8174605369568,12.362812042237 -29.3616786003113,33.99773311615 q -24.7256240844725,26.270975589753 -40.179139137268,33.99773311615 q -13.908163547516,7.726757526398 -33.9977331161499,7.726757526398 q -64.9047632217408,0 -64.9047632217408,-57.178005695343 q 0,-35.543084621429 24.7256240844727,-54.087302684784 q 26.2709755897522,-18.544218063354 84.9943327903749,-27.816327095032 q 30.9070301055908,-6.181406021118 52.5419511795044,-10.817460536956 q 21.6349210739135,-6.181406021119 41.7244906425476,-13.908163547516 q 20.0895695686339,-9.272109031678 40.179139137268,-20.089569568634 q 20.0895695686341,-10.817460536957 47.9058966636658,-27.816327095032 l -18.5442180633545,-12.362812042236 q -12.3628120422362,-6.181406021119 -16.9988665580748,-9.272109031678 q -4.6360545158387,-3.090703010559 -7.7267575263977,-4.636054515838 q -3.0907030105591,-1.54535150528 -7.7267575263978,-3.090703010559 q -4.6360545158386,-1.54535150528 -16.998866558075,-7.726757526398 q -21.6349210739136,-7.726757526398 -47.9058966636658,-13.908163547516 q -24.7256240844725,-7.726757526398 -55.6326541900635,-13.908163547516 q -64.9047632217407,-12.362812042236 -92.7210903167724,-30.907030105591 q -27.8163270950319,-18.544218063354 -27.8163270950319,-52.541951179504 q 0,-27.816327095032 16.998866558075,-44.815193653107 q 16.9988665580751,-16.998866558075 43.2698421478271,-16.998866558075 q 21.6349210739136,0 38.6337876319886,10.817460536957 q 16.9988665580748,10.817460536957 44.8151936531067,44.815193653107 q 23.1802725791931,23.180272579193 41.7244906425476,41.724490642547 q 18.5442180633545,18.544218063355 35.5430846214293,33.99773311615 q 18.5442180633545,13.908163547516 38.6337876319885,27.816327095032 q 20.0895695686341,12.362812042236 44.8151936531067,26.270975589752 v -24.725624084472 q 0,-35.54308462143 -7.7267575263977,-75.722223758698 q -6.1814060211181,-40.179139137268 -18.5442180633545,-83.448981285095 q -10.8174605369568,-27.816327095032 -15.4535150527954,-50.996599674225 q -3.0907030105591,-24.725624084473 -3.0907030105591,-41.724490642548 q 0,-26.270975589752 16.9988665580751,-41.724490642547 q 18.5442180633545,-16.998866558075 44.8151936531065,-16.998866558075 q 26.2709755897523,0 44.8151936531067,18.544218063354 q 20.089569568634,16.998866558075 20.089569568634,43.269842147827 q 0,16.998866558075 -6.1814060211181,37.088436126709 q -4.6360545158386,20.089569568634 -12.3628120422363,46.360545158387 q -13.9081635475159,41.724490642547 -23.1802725791932,78.812926769256 q -7.7267575263977,35.54308462143 -7.7267575263977,67.9954662323 v 46.360545158386 l 13.9081635475159,-7.726757526397 q 12.3628120422363,-7.726757526398 16.998866558075,-9.272109031678 q 4.6360545158386,-3.090703010559 7.7267575263977,-4.636054515838 q 3.090703010559,-3.090703010559 6.1814060211181,-6.181406021118 q 4.6360545158386,-3.09070301056 15.4535150527954,-10.817460536957 q 9.2721090316773,-7.726757526398 12.3628120422364,-10.817460536957 q 4.6360545158386,-3.090703010559 6.1814060211181,-4.636054515839 q 3.0907030105591,-3.090703010559 7.7267575263977,-7.726757526397 q 4.6360545158387,-4.636054515839 16.998866558075,-15.453515052796 q 10.8174605369568,-10.817460536957 13.9081635475159,-13.908163547516 q 4.6360545158386,-4.636054515838 6.1814060211181,-6.181406021118 q 3.0907030105591,-3.090703010559 4.6360545158386,-7.726757526397 q 3.0907030105591,-4.636054515839 12.3628120422364,-15.453515052796 q 32.4523816108703,-38.633787631988 54.0873026847839,-55.632654190063 q 23.1802725791931,-16.998866558075 44.8151936531067,-16.998866558075 q 29.3616786003113,0 44.8151936531067,18.544218063354 q 16.9988665580749,18.544218063355 16.9988665580749,49.451248168945 q 0,35.54308462143 -18.5442180633545,50.996599674225 q -18.5442180633545,15.453515052796 -71.0861692428588,23.180272579193 q -29.3616786003113,4.636054515839 -50.9965996742249,10.817460536957 q -21.6349210739136,6.181406021118 -43.2698421478271,13.908163547516 q -21.6349210739136,7.726757526398 -46.3605451583863,20.089569568634 q -23.1802725791931,10.817460536957 -55.6326541900635,29.361678600311 l 13.9081635475159,10.817460536957 q 71.0861692428589,41.724490642548 171.5340170860291,60.268708705902 q 58.7233572006225,7.726757526398 80.3582782745361,24.725624084473 q 23.1802725791931,16.998866558075 23.1802725791931,50.996599674225 q 0,29.361678600311 -16.9988665580749,47.905896663666 q -15.4535150527954,18.544218063354 -46.3605451583863,18.544218063354 q -24.7256240844726,0 -47.9058966636657,-16.998866558075 q -23.1802725791932,-18.544218063354 -57.1780056953431,-60.268708705902 q -67.9954662322998,-83.448981285095 -122.0827689170837,-105.083902359009 l -13.9081635475159,-4.636054515838 v 10.817460536956 q 0,54.087302684784 9.2721090316773,103.53855085373 q 9.2721090316772,47.905896663665 26.2709755897522,95.811793327331 q 15.4535150527954,38.633787631989 15.4535150527954,58.723357200623 q 0,26.270975589752 -21.6349210739136,47.905896663666 q -21.6349210739136,20.089569568634 -49.4512481689453,20.089569568634 q -24.7256240844727,0 -43.2698421478271,-20.089569568634 q -16.9988665580748,-20.089569568634 -16.9988665580748,-43.269842147828 q 0,-33.99773311615 20.089569568634,-83.448981285095 q 15.4535150527953,-41.724490642547 23.180272579193,-74.176872253418 q 7.7267575263977,-33.99773311615 6.1814060211183,-58.723357200622 l -1.5453515052797,-46.360545158387 z"
       id="text3"
       aria-label="*" /><rect
       style="fill:#5c2d91;fill-opacity:1;stroke-width:0.551043;stroke-linecap:round;stroke-linejoin:round"
       id="rect3"
       width="3087.437255859375"
       height="178.1646575927734"
       x="-50.89347076416016"
       y="1706.799926757812" /><rect
       style="fill:#5c2d91;fill-opacity:1;stroke-width:0.430158;stroke-linecap:round;stroke-linejoin:round"
       id="rect5"
       width="1881.407104492188"
       height="178.1646575927734"
       x="-50.89347076416016"
       y="1962.637573242188" /><path
       style="font-size:330.615px;line-height:0.85;font-family:'Franklin Gothic Demi';-inkscape-font-specification:'Franklin Gothic Demi';letter-spacing:0px;fill:#d97757;stroke-width:37.4871;stroke-linecap:round;stroke-linejoin:round"
       d="m -704.0854921340942,2452.495135903358 l 68.9319339990616,220.356182456017 h -55.5329866409302 l -13.3989473581314,-45.362701296806 h -71.3534305095672 l -13.8832466602327,45.362701296806 H -834.5234375 l 70.5462650060654,-220.356182456017 z m -58.923081755638,134.312339782715 h 46.8155992031096 l -23.4077996015548,-77.326455235481 z m 203.0828374624251,-134.312339782715 v 220.356182456017 h -51.4971591234207 v -220.356182456017 z m 25.9907436370851,118.976195216179 h 77.1650221347808 v 35.030982851982 h -77.1650221347808 z m 154.8143253326414,-118.976195216179 v 220.356182456017 h -51.4971591234207 v -220.356182456017 z m 183.7108677625656,220.356182456017 h -48.1070640087127 v -91.532568097115 q 0,-16.627609372139 -1.2914648056031,-22.762067198753 q -1.291464805603,-6.134457826614 -6.2958909273147,-10.331718444824 q -5.0044261217117,-4.35869371891 -12.5917818546295,-4.35869371891 q -25.3449968099594,0 -25.3449968099594,37.452479362487 v 91.532568097115 h -48.1070640087128 v -163.047431707382 h 44.7169688940048 v 27.605060219764 q 11.1388839483261,-19.694838285446 21.9549016952515,-25.344996809959 q 10.8160177469253,-5.650158524513 23.4077996015548,-5.650158524513 q 23.2463665008545,0 37.4524793624878,12.591781854629 q 14.2061128616333,12.430348753929 14.2061128616333,49.075662612915 z m 93.7926319837571,-125.594952344894 v 68.931933999061 q 0,12.91464805603 3.87439441680905,17.273341774941 q 3.87439441680908,4.35869371891 18.24194037914276,4.35869371891 q 6.61875712871552,0 15.33614456653595,-0.645732402802 v 35.676715254784 q -20.98630309104919,3.551528215408 -30.18798983097076,3.551528215408 q -30.0265567302704,0 -42.6183385848999,-11.461750149727 q -12.5917818546295,-11.623183250427 -12.5917818546295,-41.811173081398 v -75.873557329177 h -25.8292961120606 v -37.452479362488 h 28.573658823967 l 3.8743944168091,-48.107064008713 l 41.3268737792969,-3.228662014008 v 51.335726022721 h 35.19241595268248 v 37.452479362488 z m 206.9572262763977,52.142891526222 H 0.4085431098937989 q -0.1614331007003785,4.35869371891 -0.1614331007003785,7.587355732918 q 0,17.43477487564 9.2016867399215698,26.313595414161 q 9.363119840621948,8.878820538521 22.277767896652218,8.878820538521 q 24.05353200435639,0 28.89652502536774,-25.66786301136 l 43.58693718910215,3.228662014007 q -18.24194037914273,56.501585245133 -74.09779322147366,56.501585245133 q -24.376398205757144,0 -41.48830687999726,-9.685986042023 q -16.95047557353973,-9.847419142723 -28.08935952186584,-28.573658823967 q -10.97745084762573,-18.726239681244 -10.97745084762573,-44.878401994705 q 0,-38.905377268791 22.11633479595184,-62.797476172447 q 22.277767896652221,-23.892098903656 57.14731764793396,-23.892098903656 q 31.47945463657379,0 53.91865563392639,22.277767896652 q 22.60063409805301,22.116334795952 22.60063409805301,70.707698106766 z M 0.2471100091934204,2571.471331119537 H 58.20159316062927 q -2.26006340980529,-33.578084945678 -27.60506021976471,-33.578084945678 q -27.12076091766357,0 -30.349422931671139,33.578084945678 z M 298.5755219459534,2513.516847968101 q -7.5873557329178,-1.614331007003 -12.75321495533,-1.614331007003 q -15.9818769693375,0 -18.7262396812439,14.206112861633 q 13.0760811567306,13.721813559532 13.0760811567306,30.995155334473 q 0,23.084933400154 -19.3719720840454,36.806746959686 q -19.210538983345,13.721813559532 -55.5329866409301,13.721813559532 q -12.9146480560303,0 -25.1835637092591,-2.421496510506 q -8.2330881357193,4.842993021012 -8.2330881357193,12.43034875393 q 0,8.394521236419 6.9416233301163,11.138883948326 q 6.9416233301163,2.744362711906 33.4166518449783,4.035827517509 q 37.6139124631882,1.937197208405 51.8200253248215,4.681559920311 q 14.2061128616333,2.744362711907 23.892098903656,13.237514257431 q 9.6859860420227,10.493151545525 9.6859860420227,26.152162313461 q 0,22.439200997353 -20.8248699903488,37.936778664589 q -20.6634368896484,15.497577667237 -73.4520608186722,15.497577667237 q -49.5599619150162,0 -66.8333036899567,-10.816017746926 q -17.2733417749404,-10.654584646225 -17.2733417749404,-27.120760917663 q 0,-21.793468594551 27.9279264211654,-29.380824327469 Q 126.48783659935,2652.672180771828 126.48783659935,2633.945941090584 q 0,-23.407799601555 32.6094863414764,-36.483880758286 q -28.8965250253677,-11.946049451828 -28.8965250253677,-39.873975872993 q 0,-22.762067198754 19.8562713861465,-36.968180060387 q 20.017704486847,-14.206112861633 55.2101204395295,-14.206112861633 q 22.2777678966522,0 43.102637887001,7.103056430816 q 1.4528979063034,-13.883246660232 8.0716550350189,-22.762067198753 q 6.7801902294159,-9.040253639221 28.573658823967,-9.040253639221 q 7.1030564308166,0 13.5603804588318,1.291464805603 z m -93.6311984062195,18.887672781945 q -12.4303487539291,0 -19.5334051847458,6.780190229416 q -6.9416233301163,6.618757128715 -6.9416233301163,17.596207976341 q 0,24.860697507858 26.6364616155625,24.860697507858 q 12.9146480560302,0 20.1791375875473,-7.264489531517 q 7.4259226322174,-7.264489531517 7.4259226322174,-17.596207976341 q 0,-9.685986042023 -6.9416233301163,-16.95047557354 q -6.9416233301163,-7.425922632217 -20.8248699903488,-7.425922632217 z m -32.1251870393753,139.316765904426 q -2.9057958126068,0 -7.4259226322174,3.874394416809 q -4.3586937189102,3.874394416809 -4.3586937189102,9.363119840622 q 0,10.977450847626 14.0446797609329,13.721813559533 q 14.0446797609329,2.744362711906 32.9323525428772,2.744362711906 q 24.6992644071579,0 34.546683549881,-3.712961316109 q 10.0088522434234,-3.712961316108 10.0088522434234,-11.946049451828 q 0,-6.295890927315 -8.3945212364197,-9.685986042022 q -8.2330881357193,-3.390095114708 -44.2326695919036,-3.390095114708 l -9.6859860420227,0.1614331007 q -8.8788205385209,0 -11.946049451828,-0.484299302101 q -3.390095114708,-0.645732402802 -5.4887254238129,-0.645732402802 z m 192.4282394647598,1.130031704903 h -46.6541661024093 v -163.047431707382 h 44.0712364912033 v 30.349422931671 q 10.1702853441238,-33.90095114708 35.1924159526825,-33.90095114708 q 3.5515282154083,0 8.7173874378204,0.484299302102 v 47.461331605911 q -14.6904121637344,0 -22.9235002994537,4.52012681961 q -8.071655035019,4.520126819611 -13.2375142574311,16.304743170739 q -5.1658592224121,11.623183250427 -5.1658592224121,31.479454636573 z m 210.5087593793869,0 h -46.6541661024094 q -2.2600634098053,-9.685986042023 -2.2600634098053,-25.50642991066 q -12.2689156532289,17.434774875641 -24.5378313064576,23.246366500855 q -12.1074825525283,5.650158524513 -27.6050602197647,5.650158524513 q -22.9235002994537,0 -37.129613161087,-12.430348753929 q -14.0446797609329,-12.430348753929 -14.0446797609329,-33.416651844979 q 0,-15.336144566536 8.2330881357193,-28.250792622566 q 8.2330881357193,-12.91464805603 26.475028514862,-20.179137587547 q 18.2419403791428,-7.425922632218 66.5104374885559,-10.977450847626 v -9.363119840622 q 0,-23.730665802955 -23.7306658029556,-23.730665802955 q -25.3449968099594,0 -28.2507926225662,23.730665802955 l -44.3941026926041,-4.19726061821 q 4.3586937189102,-27.766493320465 26.3135954141617,-39.389676570892 q 21.9549016952515,-11.623183250427 49.7213950157166,-11.623183250427 q 16.6276093721389,0 31.3180215358732,3.874394416809 q 14.6904121637344,3.874394416809 22.9235002994537,11.623183250427 q 8.2330881357193,7.748788833618 11.1388839483262,16.466176271439 q 2.9057958126068,8.55595433712 2.9057958126068,30.02655673027 v 73.936360120773 q 0,21.30916929245 3.0672289133072,30.510856032372 z m -51.0128598213196,-78.133620738983 q -50.5285605192184,5.004426121712 -50.5285605192184,30.510856032371 q 0,8.55595433712 5.3272923231125,14.851845264435 q 5.3272923231125,6.134457826615 15.1747114658356,6.134457826615 q 12.7532149553298,0 21.3091692924498,-10.493151545525 q 8.7173874378205,-10.654584646225 8.7173874378205,-26.152162313461 z m 141.7382506132126,-47.461331605911 v 68.931933999061 q 0,12.91464805603 3.874394416809,17.273341774941 q 3.8743944168091,4.35869371891 18.2419403791428,4.35869371891 q 6.6187571287155,0 15.3361445665361,-0.645732402802 v 35.676715254784 q -20.9863030910492,3.551528215408 -30.1879898309708,3.551528215408 q -30.0265567302705,0 -42.6183385848999,-11.461750149727 q -12.5917818546295,-11.623183250427 -12.5917818546295,-41.811173081398 v -75.873557329177 h -25.8292961120607 v -37.452479362488 h 28.573658823967 l 3.8743944168092,-48.107064008713 l 41.3268737792969,-3.228662014008 v 51.335726022721 h 35.1924159526825 v 37.452479362488 z m 206.9572873115538,52.142891526222 h -104.931515455246 q -0.1614331007003,4.35869371891 -0.1614331007003,7.587355732918 q 0,17.43477487564 9.2016867399215,26.313595414161 q 9.3631198406221,8.878820538521 22.2777678966523,8.878820538521 q 24.0535320043563,0 28.8965250253677,-25.66786301136 l 43.5869371891022,3.228662014007 q -18.2419403791429,56.501585245133 -74.0977932214737,56.501585245133 q -24.3763982057573,0 -41.4883068799974,-9.685986042023 q -16.9504755735396,-9.847419142723 -28.0893595218657,-28.573658823967 q -10.9774508476258,-18.726239681244 -10.9774508476258,-44.878401994705 q 0,-38.905377268791 22.116334795952,-62.797476172447 q 22.2777678966521,-23.892098903656 57.147317647934,-23.892098903656 q 31.4794546365737,0 53.9186556339263,22.277767896652 q 22.600634098053,22.116334795952 22.600634098053,70.707698106766 z m -105.0929485559462,-27.927926421166 h 57.9544831514357 q -2.2600634098053,-33.578084945678 -27.6050602197647,-33.578084945678 q -27.1207609176636,0 -30.349422931671,33.578084945678 z m 273.9518916606901,-118.976195216179 v 220.356182456017 h -44.394102692604 v -25.50642991066 q -16.4661762714386,28.896525025368 -44.8784019947052,28.896525025368 q -26.9593278169632,0 -42.6183385848999,-21.954901695252 q -15.4975776672362,-22.116334795951 -15.4975776672362,-61.183145165443 q 0,-40.681141376495 15.4975776672362,-63.604641675949 q 15.6590107679367,-23.084933400154 45.2012681961061,-23.084933400154 q 25.9907292127609,0 40.0354089736937,20.502003788948 v -74.420659422875 z m -46.6541661024092,125.594952344895 q 0,-38.42107796669 -23.2463665008545,-38.42107796669 q -27.7664933204651,0 -27.7664933204651,54.241521835327 q 0,48.268497109413 25.990729212761,48.268497109413 q 10.0088522434233,0 17.4347748756408,-8.71738743782 q 7.5873557329178,-8.717387437821 7.5873557329178,-24.860697507859 z m 222.9391417503363,-125.594952344895 v 220.356182456017 h -51.497159123421 v -220.356182456017 z m 164.015937924385,96.698427319527 l -35.030982851983,9.363119840622 q -6.134457826614,-22.116334795952 -31.802320837974,-22.116334795952 q -24.214965105057,0 -24.214965105057,14.690412163735 q 0,5.811591625213 4.35869371891,9.363119840622 q 4.520126819611,3.390095114708 23.246366500855,5.811591625213 q 27.927926421165,3.712961316109 41.326873779297,8.55595433712 q 13.398947358131,4.842993021012 21.147736191749,16.304743170738 q 7.910221934319,11.461750149727 7.910221934319,28.250792622567 q 0,25.183563709259 -19.210538983345,41.004007577896 q -19.049105882645,15.820443868637 -53.434356331825,15.820443868637 q -62.313176870347,0 -74.420659422875,-48.268497109413 l 40.519708275795,-5.973024725914 q 5.004426121712,21.954901695251 36.161014556885,21.954901695251 q 11.946049451828,0 20.179137587547,-4.19726061821 q 8.233088135719,-4.35869371891 8.233088135719,-11.623183250427 q 0,-11.300317049026 -18.241940379142,-13.398947358131 q -49.398528814316,-6.134457826615 -65.057539582253,-18.887672781945 q -15.497577667236,-12.91464805603 -15.497577667236,-35.838148355484 q 0,-23.246366500854 18.080507278442,-38.42107796669 q 18.080507278443,-15.174711465835 50.689993619919,-15.174711465835 q 25.829296112061,0 41.326873779297,10.170285344124 q 15.497577667236,10.170285344123 23.730665802956,32.609486341476 z m 156.4287109375,0 l -35.030982851983,9.363119840622 q -6.134457826614,-22.116334795952 -31.802320837974,-22.116334795952 q -24.214965105057,0 -24.214965105057,14.690412163735 q 0,5.811591625213 4.35869371891,9.363119840622 q 4.520126819611,3.390095114708 23.246366500855,5.811591625213 q 27.927926421165,3.712961316109 41.326873779297,8.55595433712 q 13.398947358131,4.842993021012 21.147736191749,16.304743170738 q 7.910221934319,11.461750149727 7.910221934319,28.250792622567 q 0,25.183563709259 -19.210538983345,41.004007577896 q -19.049105882645,15.820443868637 -53.434356331825,15.820443868637 q -62.313176870347,0 -74.420659422875,-48.268497109413 l 40.519708275795,-5.973024725914 q 5.004426121712,21.954901695251 36.161014556885,21.954901695251 q 11.946049451828,0 20.179137587547,-4.19726061821 q 8.233088135719,-4.35869371891 8.233088135719,-11.623183250427 q 0,-11.300317049026 -18.241940379142,-13.398947358131 q -49.398528814316,-6.134457826615 -65.057539582253,-18.887672781945 q -15.497577667236,-12.91464805603 -15.497577667236,-35.838148355484 q 0,-23.246366500854 18.080507278442,-38.42107796669 q 18.080507278443,-15.174711465835 50.689993619919,-15.174711465835 q 25.829296112061,0 41.326873779297,10.170285344124 q 15.497577667236,10.170285344123 23.730665802956,32.609486341476 z m 173.70205271244,-39.389676570892 v 163.047431707382 h -44.555535793304 v -27.766493320465 q -12.59178185463,31.156588435173 -48.107064008713,31.156588435173 q -18.403373479843,0 -28.250792622566,-6.780190229416 q -9.847419142723,-6.941623330116 -14.206112861634,-18.726239681244 q -4.197260618209,-11.946049451828 -4.197260618209,-34.38525044918 v -106.54584646225 h 46.654166102409 v 106.54584646225 q 0,21.954901695251 18.080507278442,21.954901695251 q 9.201686739922,0 15.981876969338,-5.165859222412 q 6.780190229416,-5.327292323113 8.55595433712,-11.300317049027 q 1.937197208404,-5.973024725914 1.937197208404,-20.502003788948 v -91.532568097114 z m 186.132353305817,89.59537088871 h -104.931515455246 q -0.161433100701,4.35869371891 -0.161433100701,7.587355732918 q 0,17.43477487564 9.201686739922,26.313595414161 q 9.363119840622,8.878820538521 22.277767896652,8.878820538521 q 24.053532004357,0 28.896525025368,-25.66786301136 l 43.586937189102,3.228662014007 q -18.241940379143,56.501585245133 -74.097793221474,56.501585245133 q -24.376398205757,0 -41.488306879997,-9.685986042023 q -16.95047557354,-9.847419142723 -28.089359521866,-28.573658823967 q -10.977450847625,-18.726239681244 -10.977450847625,-44.878401994705 q 0,-38.905377268791 22.116334795951,-62.797476172447 q 22.277767896653,-23.892098903656 57.147317647934,-23.892098903656 q 31.479454636574,0 53.918655633927,22.277767896652 q 22.600634098053,22.116334795952 22.600634098053,70.707698106766 z m -105.092948555947,-27.927926421166 h 57.954483151436 q -2.260063409805,-33.578084945678 -27.605060219764,-33.578084945678 q -27.120760917664,0 -30.349422931672,33.578084945678 z m 359.995917439461,-118.976195216179 v 43.586937189103 h -54.564388036728 v 176.769245266914 h -52.304324626922 V 2496.082073092461 H 1992.0087890625 v -43.586937189103 z m 51.335525274277,220.356182456017 h -46.654166102409 v -163.047431707382 h 44.071236491203 v 30.349422931671 q 10.170285344124,-33.90095114708 35.192415952682,-33.90095114708 q 3.551528215409,0 8.717387437821,0.484299302102 v 47.461331605911 q -14.690412163735,0 -22.923500299454,4.52012681961 q -8.071655035019,4.520126819611 -13.237514257431,16.304743170739 q -5.165859222412,11.623183250427 -5.165859222412,31.479454636573 z m 210.508881449699,0 h -46.654166102409 q -2.260063409805,-9.685986042023 -2.260063409805,-25.50642991066 q -12.268915653229,17.434774875641 -24.537831306458,23.246366500855 q -12.107482552528,5.650158524513 -27.605060219765,5.650158524513 q -22.923500299453,0 -37.129613161087,-12.430348753929 q -14.044679760933,-12.430348753929 -14.044679760933,-33.416651844979 q 0,-15.336144566536 8.23308813572,-28.250792622566 q 8.233088135719,-12.91464805603 26.475028514862,-20.179137587547 q 18.241940379143,-7.425922632218 66.510437488556,-10.977450847626 v -9.363119840622 q 0,-23.730665802955 -23.730665802956,-23.730665802955 q -25.344996809959,0 -28.250792622566,23.730665802955 l -44.394102692604,-4.19726061821 q 4.35869371891,-27.766493320465 26.313595414161,-39.389676570892 q 21.954901695252,-11.623183250427 49.721395015717,-11.623183250427 q 16.627609372139,0 31.318021535873,3.874394416809 q 14.690412163735,3.874394416809 22.923500299454,11.623183250427 q 8.233088135719,7.748788833618 11.138883948326,16.466176271439 q 2.905795812607,8.55595433712 2.905795812607,30.02655673027 v 73.936360120773 q 0,21.30916929245 3.067228913307,30.510856032372 z m -51.012859821319,-78.133620738983 q -50.528560519219,5.004426121712 -50.528560519219,30.510856032371 q 0,8.55595433712 5.327292323113,14.851845264435 q 5.327292323112,6.134457826615 15.174711465835,6.134457826615 q 12.75321495533,0 21.30916929245,-10.493151545525 q 8.717387437821,-10.654584646225 8.717387437821,-26.152162313461 z m 231.010755300522,16.95047557354 q -2.744362711907,28.896525025367 -22.923500299454,46.815599203109 q -20.017704486847,17.757641077042 -51.820025324822,17.757641077042 q -34.546683549881,0 -56.340152144432,-22.762067198753 q -21.63203549385,-22.923500299454 -21.63203549385,-61.183145165444 q 0,-38.25964486599 22.116334795951,-61.990310668945 q 22.277767896653,-23.892098903656 59.40738105774,-23.892098903656 q 29.86512362957,0 49.398528814315,17.919074177742 q 19.694838285447,17.919074177742 21.793468594552,44.878401994705 l -44.878401994706,2.582929611206 q -2.260063409805,-29.380824327469 -25.506429910659,-29.380824327469 q -28.573658823967,0 -28.573658823967,46.81559920311 q 0,31.156588435173 7.910221934318,39.551109671593 q 8.071655035019,8.394521236419 19.533405184746,8.394521236419 q 22.277767896652,0 26.636461615562,-28.250792622566 z m 135.765423417091,-46.65416610241 l 53.111490130424,107.837311267853 h -53.111490130424 l -34.06238424778,-73.936360120773 l -28.250792622566,32.286620140075 v 41.649739980698 h -45.362701296806 v -220.356182456017 h 45.362701296806 v 132.05227637291 l 7.103056430816,-8.878820538521 q 4.520126819611,-6.134457826614 7.587355732918,-9.847419142723 l 47.622764706612,-56.017285943031 h 46.81559920311 z m 214.221727371216,34.385250449181 h -104.931515455246 q -0.161433100701,4.35869371891 -0.161433100701,7.587355732918 q 0,17.43477487564 9.201686739922,26.313595414161 q 9.363119840622,8.878820538521 22.277767896652,8.878820538521 q 24.053532004357,0 28.896525025368,-25.66786301136 l 43.586937189102,3.228662014007 q -18.241940379143,56.501585245133 -74.097793221474,56.501585245133 q -24.376398205757,0 -41.488306879997,-9.685986042023 q -16.95047557354,-9.847419142723 -28.089359521866,-28.573658823967 q -10.977450847625,-18.726239681244 -10.977450847625,-44.878401994705 q 0,-38.905377268791 22.116334795951,-62.797476172447 q 22.277767896653,-23.892098903656 57.147317647934,-23.892098903656 q 31.479454636574,0 53.918655633927,22.277767896652 q 22.600634098053,22.116334795952 22.600634098053,70.707698106766 z m -105.092948555947,-27.927926421166 h 57.954483151436 q -2.260063409805,-33.578084945678 -27.605060219764,-33.578084945678 q -27.120760917664,0 -30.349422931672,33.578084945678 z m 182.096335291863,101.379987239838 h -46.654166102409 v -163.047431707382 h 44.071236491203 v 30.349422931671 q 10.170285344124,-33.90095114708 35.192415952682,-33.90095114708 q 3.551528215409,0 8.717387437821,0.484299302102 v 47.461331605911 q -14.690412163735,0 -22.923500299454,4.52012681961 q -8.071655035019,4.520126819611 -13.237514257431,16.304743170739 q -5.165859222412,11.623183250427 -5.165859222412,31.479454636573 z"
       id="text5"
       transform="scale(0.9918468270344778,1.008220193625965)"
       aria-label="AI-Integrated Issue Tracker" /></g></svg>
